<svg xmlns="http://www.w3.org/2000/svg" viewBox="0 0 960 960"><title>pLogo</title><path d="M480,0C214.9,0,0,214.9,0,480S214.9,960,480,960,960,745.1,960,480,745.1,0,480,0Zm0,880C259.1,880,80,700.9,80,480S259.1,80,480,80,880,259.1,880,480,700.9,880,480,880Z"/><path d="M695.9,312.4a130.71,130.71,0,0,0-27-38.5c-23.4-23.7-49.5-35-93-40.4-28.6-3.5-36.9-3.7-150.2-4.2l-113.8-.5V745h83V526h30.8c45.8-.7,82.4-3.5,108.4-6.1a356.14,356.14,0,0,0,55.2-9.5c31.1-7.9,45.2-16.1,49.2-18.5a153.61,153.61,0,0,0,31.8-26c25.6-27.2,38.7-59.7,38.7-96.4C709,347.9,705.6,332.9,695.9,312.4Zm-75.2,67.4c-.9,20.7-6.9,34.6-21.3,49.1-6.1,6.2-9.8,9-15.5,11.7-13.5,6.4-25,9.4-47,12.4-9,1.2-25.6,1.6-76.6,1.9l-65.2.5V299l68.2.5c54.8.4,70.6.8,80.2,2.1,17.4,2.3,26.6,5,38.5,10.9,19.2,9.7,31.8,25.6,37.1,46.8C620.9,366.4,621.1,369.7,620.7,379.8Z"/></svg>