<?xml version="1.0" encoding="utf-8"?>
<!-- Generator: Adobe Illustrator 22.0.1, SVG Export Plug-In . SVG Version: 6.00 Build 0)  -->
<svg version="1.1" id="Layer_1" xmlns="http://www.w3.org/2000/svg" xmlns:xlink="http://www.w3.org/1999/xlink" x="0px" y="0px"
	 viewBox="0 0 32.5 32.5" style="enable-background:new 0 0 32.5 32.5;" xml:space="preserve">
<path d="M16.7,4.9c0-1.5,0-2.8,0-4.1C22.9,0.1,31.9,6,32.1,16c-0.7,0-1.4,0-2.1,0s-1.4,0-2.2,0c-0.2-3.1-1.3-5.6-3.5-7.7
	C22.2,6.2,19.6,5.1,16.7,4.9z"/>
<path d="M15.9,0.7c0,1.4,0,2.7,0,4.2c-0.6,0.1-1.2,0.2-1.7,0.3C9.4,6,5.5,10.1,5,14.9C4.9,15.7,4.7,16,3.9,16c-1.1-0.1-2.1,0-3.2,0
	C0.2,8.7,7.3,0.4,15.9,0.7z"/>
<path d="M0.6,16.7c1.4,0,2.7,0,4.1,0C5.6,23.3,9.3,27,15.9,27.9c0,1.4,0,2.7,0,4.1C8.8,32.4,0.4,25.6,0.6,16.7z"/>
<path d="M27.8,16.7c1.5,0,2.8,0,4.2,0c0.3,8-7.3,15.6-15.4,15.3c0-0.7,0-1.4,0-2.1s0-1.3,0-2.1c3-0.2,5.6-1.2,7.8-3.3
	C26.5,22.4,27.6,19.8,27.8,16.7z"/>
<path d="M5.9,16.7c1.7,0,3.3,0,4.9,0c0.5,2.8,2.1,4.5,5,5c0,1.7,0,3.3,0,5C10.6,26.7,5.9,22,5.9,16.7z"/>
<path d="M16.7,21.7c2.9-0.5,4.6-2.1,5-5c1.7,0,3.3,0,4.9,0c0.4,4.9-4.7,10-9.9,10C16.7,25.1,16.7,23.4,16.7,21.7z"/>
<path d="M6,16c-0.3-5.1,5.2-10.5,9.9-9.9c0,1.6,0,3.1,0,4.8c-0.4,0.1-0.8,0.2-1.2,0.3c-1.9,0.6-3.2,1.9-3.6,3.8
	c-0.1,0.8-0.4,1-1.1,1C8.6,15.9,7.3,16,6,16z"/>
<path d="M16.7,10.9c0-1.7,0-3.3,0-4.8c4.9-0.5,10,4.6,10,9.9c-1.5,0-3,0-4.4,0c-0.2,0-0.6-0.2-0.6-0.4
	C21.1,12.8,19.2,11.5,16.7,10.9z"/>
</svg>
