<svg xmlns="http://www.w3.org/2000/svg" viewBox="0 0 960 960"><title>rLogo</title><path d="M480,0C214.9,0,0,214.9,0,480S214.9,960,480,960,960,745.1,960,480,745.1,0,480,0Zm0,880C259.09,880,80,700.91,80,480S259.09,80,480,80,880,259.09,880,480,700.91,880,480,880Z" transform="translate(0 0)"/><path d="M702,742.23c-1-1.51-8.53-13.55-16.75-26.75l-35.49-57c-30.77-49.42-49.31-76-68.27-98-19.9-23.05-28.53-30.18-48.75-40.24l-11.58-5.76,6-.74c45.35-5.58,75.3-19.66,101.86-47.88,25.61-27.21,38.67-59.71,38.71-96.38,0-21.58-3.41-36.58-13.08-57.1a130.6,130.6,0,0,0-27-38.5c-23.46-23.64-49.54-34.95-93-40.36-28.62-3.56-37-3.8-150.25-4.25l-113.75-.45V745h83V526l30.75,0c41.45,0,56.77,2.18,72.75,10.23,18.58,9.36,38.43,30.49,62.24,66.25,15.08,22.66,20.6,32,56.56,96l8.71,15.5c2,3.57,6.74,12,10.52,18.75L602,745H703.79ZM495.55,453c-9,1.21-25.63,1.64-76.75,2l-65.25.46V299.08l68.25.46c54.85.36,70.6.76,80.25,2,17.35,2.31,26.63,4.93,38.5,10.87,19.21,9.62,31.86,25.54,37.14,46.76,1.77,7.09,2,10.42,1.6,20.5-.88,20.75-6.89,34.62-21.28,49.14-6.15,6.2-9.8,8.95-15.5,11.68C529.08,447,517.58,450,495.55,453Z" transform="translate(0 0)"/></svg>