<?xml version="1.0" encoding="utf-8"?>
<!-- Generator: Adobe Illustrator 22.0.1, SVG Export Plug-In . SVG Version: 6.00 Build 0)  -->
<svg version="1.1" id="Layer_1" xmlns="http://www.w3.org/2000/svg" xmlns:xlink="http://www.w3.org/1999/xlink" x="0px" y="0px"
	 viewBox="0 0 32.5 32.5" style="enable-background:new 0 0 32.5 32.5;" xml:space="preserve">
<g>
	<path d="M9.1,16.1c0-3.9,3.1-7,7-7.1c4.1-0.1,7.4,3.2,7.3,7.2c-0.1,3.9-3.2,7.1-7.3,7C12.2,23.2,9.1,20,9.1,16.1z M21,16.1
		c0-2.6-2.1-4.7-4.7-4.7c-2.7,0-4.8,2.1-4.8,4.7c0,2.6,2.1,4.8,4.7,4.8C18.8,20.9,21,18.7,21,16.1z"/>
	<path d="M16.2,18.6c-1.4,0-2.5-1.1-2.4-2.5c0-1.4,1.1-2.5,2.5-2.5c1.3,0,2.4,1.1,2.4,2.5C18.7,17.5,17.6,18.6,16.2,18.6z"/>
	<path d="M0.4,16.1c0-8.7,7-15.7,15.5-15.9C25,0,32.3,7.4,32.1,16.4C32,25,24.9,32.2,15.9,32C7.3,31.8,0.4,24.8,0.4,16.1z
		 M26.8,16.1c0-5.8-4.6-10.5-10.4-10.6C10.5,5.5,5.8,10.2,5.7,16c-0.1,5.9,4.6,10.6,10.4,10.7C22,26.7,26.8,22,26.8,16.1z"/>
</g>
</svg>
